<?xml version="1.0" standalone="no"?><!DOCTYPE svg PUBLIC "-//W3C//DTD SVG 1.1//EN" "http://www.w3.org/Graphics/SVG/1.1/DTD/svg11.dtd"><svg t="1687941451285" class="icon" viewBox="0 0 1024 1024" version="1.1" xmlns="http://www.w3.org/2000/svg" p-id="14924" xmlns:xlink="http://www.w3.org/1999/xlink" width="200" height="200"><path d="M279.936 789.333333l-139.946667 139.946667a32 32 0 0 1-48.384-41.642667l3.114667-3.584 789.333333-789.333333a32 32 0 0 1 41.642667-3.114667l3.584 3.114667a32 32 0 0 1 3.114667 41.642667l-3.114667 3.584-128 128.042666c18.176 38.442667 29.013333 81.194667 30.549333 126.464l0.170667 10.709334v174.805333l58.88 134.656a53.290667 53.290667 0 0 1-48.853333 74.709333H640a128 128 0 0 1-255.786667 7.594667L384 789.290667H279.893333l-139.946666 139.989333 139.946666-139.946667z m296.021333 0H448a64 64 0 0 0 127.701333 6.229334l0.256-6.272zM512 85.12c80.981333 0 154.965333 29.952 211.370667 79.530667l-45.312 45.354666A255.36 255.36 0 0 0 512 149.162667c-141.653333 0-256 114.090667-256 256v188.16l-29.866667 68.608-93.44 93.44a53.162667 53.162667 0 0 1 0.768-40.618667L192 580.010667V405.162667c0-177.28 143.018667-320 320-320z m240.469333 231.68L343.936 725.333333 825.685333 725.333333 768 593.365333V405.717333l-0.170667-9.6a256.170667 256.170667 0 0 0-15.36-79.274666z" fill="#ffffff" p-id="14925"></path></svg>